<svg fill="none" height="44" viewBox="0 0 44 44" width="44" xmlns="http://www.w3.org/2000/svg">
    <g clip-rule="evenodd" fill-rule="evenodd">
        <path
            d="m33.4596 36.4683c0 1.0589-.8588 1.9179-1.9178 1.9179h-20.0093c-1.0589 0-1.91775-.859-1.91775-1.9179v-29.3425c0-1.05898.85885-1.91779 1.91775-1.91779h12.8654l9.0617 9.28149z"
            fill="#23a566" />
        <path d="m25.3972 14.2549 8.0629 7.7031-.0237-7.4795-.0135-.0004h-7.1228c-.3245 0-.6301-.0807-.8981-.2231z"
            fill="#1c8f5a" />
        <path d="m33.4598 14.4774h-7.1599c-1.059 0-1.9178-.8588-1.9178-1.9177v-7.3595z" fill="#8ed1b1" />
        <path
            d="m15.3369 32.2495h12.4017v-10.7397h-12.4017zm6.9678-7.2877h3.8997v-1.9177h-3.8997zm0 2.9408h3.8997v-1.7901h-3.8997zm0 2.8126h3.8997v-1.662h-3.8997zm-5.4335 0h3.8993v-1.662h-3.8993zm0-2.8126h3.8993v-1.7901h-3.8993zm0-2.9408h3.8993v-1.9177h-3.8993z"
            fill="#fff" />
    </g>
</svg>