<?xml version="1.0" encoding="UTF-8"?>
<svg width="32px" height="32px" viewBox="0 0 32 32" version="1.1" xmlns="http://www.w3.org/2000/svg" xmlns:xlink="http://www.w3.org/1999/xlink">
    <title>qb-logo</title>
    <g id="Page-1" stroke="none" stroke-width="1" fill="none" fill-rule="evenodd">
        <g id="qb-logo" fill-rule="nonzero">
            <ellipse id="Oval" fill="#2CA01C" cx="15.9328236" cy="15.9123914" rx="15.8028887" ry="15.8328752"></ellipse>
            <path d="M4.51822146,15.9116877 C4.51822146,19.3122375 7.26967997,22.068917 10.6637893,22.068917 L11.5417276,22.068917 L11.5417276,19.7819461 L10.6637893,19.7819461 C8.5335599,19.7819461 6.80086095,18.0459593 6.80086095,15.9116877 C6.80086095,13.777768 8.5335599,12.0414294 10.6637893,12.0414294 L12.7732993,12.0414294 L12.7732993,24.0040462 C12.7732993,25.2671578 13.7952195,26.291017 15.0559388,26.291017 L15.0559388,9.7544585 L10.6637893,9.7544585 C7.26967997,9.7544585 4.51822146,12.5114898 4.51822146,15.9116877 L4.51822146,15.9116877 Z M21.2025602,9.75551402 L20.3246219,9.75551402 L20.3246219,12.0424849 L21.2025602,12.0424849 C23.3320872,12.0424849 25.0654885,13.7788235 25.0654885,15.9127433 C25.0654885,18.046663 23.3320872,19.7830017 21.2025602,19.7830017 L19.0919966,19.7830017 L19.0919966,7.82038484 C19.0919966,6.55727324 18.0700765,5.53341395 16.8093571,5.53341395 L16.8093571,22.0699725 L21.2025602,22.0699725 C24.5963183,22.0699725 27.348128,19.313293 27.348128,15.9127433 C27.348128,12.5121935 24.5963183,9.75551402 21.2025602,9.75551402 L21.2025602,9.75551402 Z" id="Shape" fill="#FFFFFF"></path>
        </g>
    </g>
</svg>